<?xml version="1.0" encoding="utf-8"?>
<!-- Generator: Adobe Illustrator 23.0.1, SVG Export Plug-In . SVG Version: 6.00 Build 0)  -->
<svg version="1.1" id="Layer_1" xmlns="http://www.w3.org/2000/svg" xmlns:xlink="http://www.w3.org/1999/xlink" x="0px" y="0px"
	 viewBox="0 0 250 100" style="enable-background:new 0 0 250 100;" xml:space="preserve">
<style type="text/css">
	.st0{fill:#020202;}
</style>
<path class="st0" d="M60.23,87.96H45.97l-8.8-21.2l-0.4-5.91h-20.8l-4.61-3.14l-0.15-9.37H5.36v18.65l6.33,4.28h20.92l4.4,9.41
	l-3.22,1.01l-3.72-6.6h-19.3l-8.76-5.93V44.53h9.21l-0.1-7.84l21.75-18.03v22.57l-8.72,7.12h-9.59l0.08,6.98l2.68,1.72h23.03
	l0.55,8.8l7.82,18.31h8.57l4.15-31.19l0.07-0.21c0.18-0.54,1.36-3.21,6.53-2.84c1.69,0.14,4.61-3.25,6.79-6.57l-13.45-0.74
	l-0.22-10.44l-3.72-4.24l-20.34-0.29L36.73,8.04l32.75,4.33L88.8,30.79v30.47l-16.36,0.33c-0.33,0-1.15,0.29-1.26,2.14
	c-0.22,3.2-1.74,11.73-2.38,15.25l3.45,1.72l2.13-12.44l-1.15-3.39l3.12-1.37l1.46,4.41l-3.12,18.21l-9.73-4.89l0.28-1.52
	c0-0.13,2.3-12.53,2.6-16.27c0.3-4.48,3.11-5.67,4.61-5.67l13.05-0.26V33.32l-17.5-17.13l-27.88-3.34l0.25,10.97l18.24,0.24
	l5.84,7.1v7.74l16.37,0.98l-1.51,2.76c-1.06,1.91-6.55,11.45-11.51,11.1c-1.09-0.19-2.21-0.01-3.18,0.52L60.23,87.96z M14.51,44.51
	h8.83l6.18-4.89V26.53l-15.1,12.04L14.51,44.51z"/>
<path class="st0" d="M144.93,71.5h-5.96l-13.92-29.83L111.12,71.5h-5.98l19.9-41.11L144.93,71.5z"/>
<path class="st0" d="M170.78,31.71h-18.56V71.5h5.31V36.35h12.6c5.96,0,9.95,3.98,9.95,9.28s-3.98,9.29-9.95,9.29h-7.02v4.61h7.68
	c9.29,0,14.59-5.98,14.59-13.93S180.07,31.71,170.78,31.71z"/>
<path class="st0" d="M219.18,58.23c5.98-1.98,8.62-6.62,8.62-12.6c0-7.96-5.31-13.92-14.59-13.92h-18.56V71.5h5.31V36.35h12.6
	c5.96,0,9.94,3.98,9.94,9.28s-3.97,9.29-9.94,9.29h-2.69l3.35,4.61l9.28,11.93h6.63L219.18,58.23z"/>
<path class="st0" d="M240.39,31.71h5.31V71.5h-5.31V31.71z"/>
<path class="st0" d="M105.74,85.11l-0.47-1.15h-2.16l-0.47,1.15h-1.15l2.2-5.17h1.04l2.21,5.17H105.74z M104.18,81.3l-0.68,1.67
	h1.34L104.18,81.3z"/>
<path class="st0" d="M108.84,81v1.15h2.44v1.02h-2.44v1.98h-1.15v-5.14h3.92v1.02L108.84,81z"/>
<path class="st0" d="M115.64,85.11l-1.09-1.64h-0.89v1.64h-1.15v-5.14h2.3c0.52-0.03,1.02,0.13,1.43,0.45
	c0.35,0.32,0.53,0.77,0.51,1.24l0,0c0.02,0.36-0.09,0.72-0.3,1.01c-0.21,0.26-0.48,0.46-0.79,0.58l1.26,1.83L115.64,85.11z
	 M115.64,81.73c0.02-0.21-0.07-0.42-0.23-0.55c-0.19-0.13-0.42-0.2-0.66-0.18h-1.15v1.47h1.15c0.23,0.01,0.46-0.06,0.64-0.2
	c0.15-0.14,0.23-0.33,0.22-0.53L115.64,81.73z"/>
<path class="st0" d="M117.88,85.11v-5.14h1.15v5.14H117.88z"/>
<path class="st0" d="M124.41,84.66c-0.14,0.12-0.29,0.22-0.46,0.3c-0.18,0.08-0.36,0.14-0.55,0.18c-0.22,0.04-0.45,0.06-0.68,0.06
	c-0.71,0.01-1.39-0.27-1.89-0.77c-0.24-0.24-0.42-0.53-0.54-0.84c-0.14-0.32-0.21-0.67-0.21-1.02l0,0c0-0.35,0.07-0.7,0.21-1.02
	c0.13-0.31,0.31-0.6,0.54-0.85c0.24-0.24,0.53-0.44,0.85-0.56c0.34-0.14,0.71-0.21,1.08-0.21c0.22-0.01,0.44,0.01,0.66,0.06
	c0.19,0.03,0.37,0.09,0.54,0.16c0.16,0.07,0.31,0.15,0.45,0.24c0.13,0.1,0.26,0.21,0.38,0.32l-0.73,0.83
	c-0.18-0.17-0.39-0.31-0.61-0.41c-0.22-0.11-0.46-0.16-0.7-0.16c-0.21,0-0.41,0.04-0.6,0.13c-0.18,0.08-0.34,0.2-0.47,0.35
	c-0.13,0.15-0.23,0.32-0.3,0.51c-0.08,0.2-0.12,0.41-0.12,0.62l0,0c0,0.21,0.04,0.42,0.12,0.62c0.07,0.19,0.17,0.37,0.3,0.52
	c0.13,0.15,0.29,0.27,0.47,0.35c0.19,0.09,0.39,0.13,0.6,0.13c0.26,0.01,0.52-0.04,0.75-0.16c0.22-0.12,0.43-0.27,0.61-0.44
	l0.71,0.73C124.71,84.43,124.57,84.55,124.41,84.66z"/>
<path class="st0" d="M129.52,85.11l-0.46-1.15h-2.18l-0.47,1.15h-1.15l2.2-5.17h1.05l2.2,5.17H129.52z M127.97,81.3l-0.68,1.67h1.37
	L127.97,81.3z"/>
<path class="st0" d="M137.61,82.55c-0.1,0.22-0.26,0.41-0.45,0.56c-0.2,0.16-0.42,0.27-0.66,0.35c-0.26,0.07-0.53,0.11-0.81,0.12
	h-0.86v1.53h-1.15v-5.14h2.1c0.28,0,0.56,0.04,0.83,0.13c0.23,0.08,0.44,0.2,0.61,0.37c0.17,0.16,0.3,0.35,0.39,0.56
	c0.09,0.23,0.14,0.47,0.14,0.71l0,0C137.76,82.02,137.71,82.3,137.61,82.55z M136.63,81.77c0.01-0.22-0.08-0.43-0.25-0.58
	c-0.19-0.14-0.43-0.21-0.67-0.2h-0.88v1.57h0.9c0.24,0.02,0.47-0.06,0.66-0.22c0.16-0.14,0.25-0.34,0.24-0.55L136.63,81.77z"/>
<path class="st0" d="M143.63,83.58c-0.27,0.64-0.78,1.15-1.43,1.42c-0.37,0.15-0.76,0.22-1.15,0.21c-0.39,0.01-0.79-0.06-1.15-0.21
	c-0.32-0.13-0.61-0.32-0.86-0.56c-0.24-0.24-0.43-0.53-0.56-0.84c-0.13-0.33-0.2-0.67-0.2-1.02l0,0c0-0.35,0.07-0.7,0.21-1.02
	c0.13-0.32,0.33-0.6,0.56-0.85c0.25-0.24,0.54-0.44,0.86-0.56c0.37-0.15,0.76-0.22,1.15-0.21c0.37,0,0.74,0.07,1.08,0.21
	c0.32,0.13,0.62,0.32,0.86,0.56c0.25,0.23,0.44,0.52,0.56,0.84c0.14,0.32,0.21,0.67,0.21,1.02l0,0
	C143.8,82.9,143.75,83.25,143.63,83.58z M142.65,82.54c0-0.21-0.04-0.42-0.12-0.62c-0.06-0.19-0.17-0.37-0.32-0.51
	c-0.14-0.15-0.31-0.27-0.5-0.36c-0.4-0.17-0.85-0.17-1.24,0c-0.19,0.07-0.35,0.19-0.48,0.35c-0.14,0.15-0.25,0.32-0.32,0.51
	c-0.07,0.2-0.11,0.41-0.12,0.62l0,0c0,0.21,0.04,0.42,0.12,0.62c0.08,0.19,0.18,0.37,0.32,0.52c0.14,0.15,0.31,0.27,0.5,0.35
	c0.2,0.09,0.42,0.13,0.63,0.13c0.21,0,0.42-0.04,0.62-0.12c0.18-0.09,0.34-0.2,0.48-0.35c0.14-0.15,0.24-0.33,0.31-0.52
	c0.08-0.19,0.12-0.4,0.12-0.61V82.54z"/>
<path class="st0" d="M144.84,85.11v-5.14h1.15v4.12h2.6v1.01H144.84z"/>
<path class="st0" d="M149.43,85.11v-5.14h1.15v5.14H149.43z"/>
<path class="st0" d="M155.95,84.66c-0.14,0.12-0.3,0.22-0.47,0.3c-0.18,0.08-0.36,0.15-0.55,0.18c-0.22,0.04-0.44,0.06-0.67,0.06
	c-0.36,0-0.72-0.07-1.05-0.21c-0.32-0.13-0.6-0.32-0.84-0.56c-0.24-0.24-0.42-0.53-0.55-0.84c-0.13-0.33-0.2-0.67-0.2-1.02l0,0
	c0-0.35,0.07-0.7,0.2-1.02c0.13-0.31,0.32-0.6,0.55-0.85c0.24-0.24,0.52-0.44,0.84-0.56c0.37-0.15,0.76-0.22,1.15-0.21
	c0.22,0,0.44,0.01,0.66,0.06c0.18,0.03,0.36,0.09,0.53,0.16c0.16,0.07,0.31,0.15,0.45,0.24c0.13,0.1,0.26,0.21,0.38,0.32l-0.71,0.83
	c-0.18-0.17-0.39-0.31-0.61-0.41c-0.22-0.11-0.46-0.16-0.7-0.16c-0.21,0-0.41,0.04-0.6,0.13c-0.18,0.08-0.34,0.2-0.47,0.35
	c-0.14,0.15-0.24,0.32-0.31,0.51c-0.07,0.2-0.1,0.41-0.1,0.62l0,0c0,0.21,0.03,0.42,0.1,0.62c0.07,0.19,0.17,0.37,0.31,0.52
	c0.12,0.15,0.28,0.27,0.46,0.35c0.19,0.09,0.4,0.13,0.61,0.13c0.26,0.01,0.52-0.04,0.75-0.16c0.22-0.12,0.42-0.27,0.6-0.44
	l0.73,0.73C156.28,84.43,156.12,84.55,155.95,84.66z"/>
<path class="st0" d="M159.84,83.07v2.04h-1.15v-2.03l-1.97-3.11h1.32l1.22,2.06l1.26-2.06h1.28L159.84,83.07z"/>
<path class="st0" d="M167.83,85.11l-1.15-1.64h-0.82v1.64h-1.15v-5.14h2.3c0.52-0.03,1.02,0.13,1.43,0.45
	c0.35,0.32,0.53,0.77,0.51,1.24l0,0c0.02,0.36-0.09,0.72-0.3,1.01c-0.21,0.26-0.48,0.46-0.79,0.58l1.26,1.83L167.83,85.11z
	 M167.83,81.73c0.02-0.21-0.07-0.42-0.23-0.55c-0.19-0.13-0.42-0.2-0.66-0.18h-1.15v1.47h1.15c0.23,0.01,0.46-0.06,0.64-0.2
	c0.15-0.14,0.23-0.33,0.22-0.53L167.83,81.73z"/>
<path class="st0" d="M170.02,85.11v-5.14h3.9v1.01h-2.75v1.04h2.42v1h-2.42v1.08h2.75v1H170.02z"/>
<path class="st0" d="M178.53,84.27c-0.09,0.2-0.22,0.37-0.38,0.51c-0.18,0.13-0.38,0.23-0.6,0.3c-0.25,0.08-0.5,0.12-0.76,0.12
	c-0.39,0-0.78-0.07-1.15-0.21c-0.38-0.14-0.73-0.35-1.02-0.62l0.67-0.79c0.22,0.18,0.46,0.33,0.73,0.45
	c0.25,0.12,0.53,0.18,0.81,0.17c0.2,0,0.39-0.05,0.56-0.15c0.12-0.08,0.2-0.21,0.2-0.36l0,0c0.01-0.06,0.01-0.13,0-0.2
	c-0.03-0.07-0.09-0.12-0.15-0.16l-0.32-0.15l-0.53-0.15l-0.7-0.21c-0.19-0.07-0.38-0.17-0.54-0.3c-0.14-0.12-0.26-0.26-0.33-0.43
	c-0.09-0.2-0.13-0.42-0.13-0.63l0,0c0-0.22,0.04-0.44,0.14-0.63c0.08-0.19,0.21-0.35,0.37-0.48c0.17-0.14,0.36-0.25,0.56-0.32
	c0.24-0.07,0.48-0.11,0.73-0.1c0.35,0,0.7,0.06,1.04,0.17c0.32,0.11,0.61,0.27,0.86,0.48l-0.59,0.85c-0.21-0.15-0.43-0.28-0.67-0.38
	c-0.21-0.08-0.44-0.12-0.67-0.13c-0.17-0.02-0.35,0.03-0.5,0.13c-0.1,0.07-0.16,0.19-0.16,0.31l0,0c-0.01,0.16,0.07,0.31,0.22,0.38
	c0.11,0.06,0.23,0.1,0.35,0.14l0.55,0.15c0.23,0.06,0.46,0.14,0.69,0.23c0.19,0.08,0.36,0.18,0.52,0.31
	c0.13,0.12,0.24,0.26,0.31,0.43c0.07,0.18,0.11,0.38,0.1,0.58l0,0C178.72,83.81,178.65,84.05,178.53,84.27z"/>
<path class="st0" d="M179.68,85.11v-5.14h3.87v1.01h-2.75v1.04h2.34v1h-2.42v1.08h2.79v1H179.68z"/>
<path class="st0" d="M188.38,85.11l-0.47-1.15h-2.18l-0.46,1.15h-1.15l2.21-5.17h1.04l2.2,5.17H188.38z M186.82,81.3l-0.69,1.67
	h1.37L186.82,81.3z"/>
<path class="st0" d="M193.5,85.11l-1.15-1.64h-0.89v1.64h-1.15v-5.14h2.3c0.51-0.03,1.02,0.13,1.43,0.45
	c0.34,0.32,0.53,0.77,0.51,1.24l0,0c0.01,0.36-0.09,0.72-0.3,1.01c-0.21,0.26-0.48,0.46-0.79,0.58l1.26,1.83L193.5,85.11z
	 M193.5,81.73c0.02-0.21-0.07-0.42-0.24-0.55c-0.19-0.14-0.41-0.2-0.64-0.18h-1.15v1.47h1.15c0.23,0.01,0.45-0.06,0.63-0.2
	c0.15-0.13,0.23-0.33,0.23-0.53L193.5,81.73z"/>
<path class="st0" d="M199.75,84.66c-0.14,0.12-0.3,0.22-0.47,0.3c-0.18,0.08-0.36,0.15-0.55,0.18c-0.22,0.04-0.44,0.06-0.67,0.06
	c-0.36,0-0.72-0.07-1.05-0.21c-0.32-0.13-0.6-0.32-0.84-0.56c-0.24-0.24-0.42-0.53-0.55-0.84c-0.13-0.33-0.2-0.67-0.2-1.02l0,0
	c0-0.35,0.07-0.7,0.2-1.02c0.13-0.31,0.32-0.6,0.55-0.85c0.24-0.24,0.52-0.44,0.84-0.56c0.35-0.14,0.72-0.21,1.09-0.21
	c0.22,0,0.44,0.01,0.66,0.06c0.18,0.03,0.36,0.09,0.53,0.16c0.16,0.07,0.31,0.15,0.45,0.24c0.13,0.1,0.26,0.21,0.38,0.32l-0.71,0.83
	c-0.18-0.17-0.39-0.31-0.61-0.41c-0.22-0.11-0.46-0.16-0.7-0.16c-0.21,0-0.41,0.04-0.6,0.13c-0.18,0.08-0.34,0.2-0.47,0.35
	c-0.13,0.15-0.24,0.32-0.31,0.51c-0.07,0.2-0.1,0.41-0.1,0.62l0,0c0,0.21,0.03,0.42,0.1,0.62c0.07,0.19,0.18,0.37,0.31,0.52
	c0.12,0.15,0.28,0.27,0.46,0.35c0.19,0.09,0.4,0.13,0.61,0.13c0.26,0.01,0.52-0.04,0.75-0.16c0.22-0.12,0.42-0.27,0.6-0.44
	l0.73,0.73C200.04,84.42,199.9,84.55,199.75,84.66z"/>
<path class="st0" d="M204.28,85.11v-2.06h-2.08v2.06h-1.15v-5.14h1.15v2.04h2.08v-2.04h1.15v5.14H204.28z"/>
<path class="st0" d="M208.9,85.11v-5.14h1.15v5.14H208.9z"/>
<path class="st0" d="M214.91,85.11l-2.49-3.26v3.26h-1.15v-5.14h1.04l2.41,3.17v-3.17h1.15v5.14H214.91z"/>
<path class="st0" d="M220.68,84.27c-0.09,0.2-0.22,0.37-0.38,0.51c-0.18,0.13-0.38,0.23-0.6,0.3c-0.25,0.08-0.5,0.12-0.76,0.12
	c-0.39,0-0.78-0.07-1.15-0.21c-0.38-0.14-0.73-0.35-1.02-0.62l0.67-0.79c0.22,0.18,0.46,0.33,0.73,0.45
	c0.25,0.12,0.53,0.18,0.81,0.17c0.19,0,0.38-0.04,0.55-0.13c0.12-0.08,0.19-0.21,0.18-0.36l0,0c0.01-0.06,0.01-0.13,0-0.2
	c-0.03-0.07-0.09-0.12-0.15-0.16l-0.32-0.15l-0.53-0.15l-0.7-0.21c-0.19-0.07-0.38-0.17-0.54-0.3c-0.14-0.12-0.26-0.26-0.33-0.43
	c-0.09-0.2-0.13-0.42-0.13-0.63l0,0c0-0.22,0.04-0.44,0.14-0.63c0.08-0.19,0.21-0.35,0.37-0.48c0.17-0.14,0.36-0.25,0.56-0.32
	c0.24-0.07,0.48-0.11,0.73-0.1c0.35,0,0.7,0.06,1.04,0.17c0.32,0.11,0.61,0.27,0.86,0.48l-0.59,0.85c-0.21-0.15-0.43-0.28-0.67-0.38
	c-0.21-0.08-0.44-0.12-0.67-0.13c-0.17-0.02-0.35,0.03-0.5,0.13c-0.1,0.07-0.16,0.19-0.16,0.31l0,0c-0.01,0.16,0.07,0.31,0.22,0.38
	c0.11,0.06,0.23,0.1,0.35,0.14l0.54,0.15c0.24,0.06,0.47,0.14,0.7,0.23c0.18,0.08,0.36,0.19,0.52,0.31
	c0.13,0.12,0.24,0.26,0.31,0.43c0.07,0.18,0.11,0.38,0.1,0.58l0,0C220.84,83.82,220.78,84.06,220.68,84.27z"/>
<path class="st0" d="M224.13,81.02v4.09h-1.15v-4.09h-1.57v-1.05h4.33v1.05H224.13z"/>
<path class="st0" d="M226.61,85.11v-5.14h1.15v5.14H226.61z"/>
<path class="st0" d="M231.35,81.02v4.09h-1.15v-4.09h-1.57v-1.05h4.25v1.05H231.35z"/>
<path class="st0" d="M238.02,83.9c-0.1,0.27-0.26,0.51-0.46,0.71c-0.2,0.2-0.44,0.35-0.7,0.44c-0.3,0.09-0.62,0.14-0.93,0.14
	c-0.6,0.03-1.18-0.17-1.64-0.56c-0.42-0.47-0.63-1.09-0.59-1.72v-2.94h1.15v2.91c-0.03,0.34,0.08,0.68,0.29,0.94
	c0.21,0.22,0.51,0.34,0.82,0.32c0.3,0.02,0.6-0.1,0.82-0.31c0.21-0.26,0.32-0.59,0.29-0.92v-2.95h1.15v2.91
	C238.21,83.23,238.14,83.57,238.02,83.9z"/>
<path class="st0" d="M241.64,81.02v4.09h-1.15v-4.09h-1.57v-1.05h4.26v1.05H241.64z"/>
<path class="st0" d="M244.07,85.11v-5.14h3.87v1.01h-2.75v1.04h2.43v1h-2.42v1.08h2.79v1H244.07z"/>
</svg>
